<svg width="100" height="49" viewBox="0 0 100 49" fill="none" xmlns="http://www.w3.org/2000/svg">
<g id="Button_Next" filter="url(#filter0_d_2664_1681)">
<g id="Vector">
<path d="M57.2917 22.2172C54.0833 24.7085 51.6797 28.928 50 34.2344C48.3203 28.928 45.9167 24.7085 42.7083 22.2172C41.25 21.1913 40.3556 21.277 38.9167 21.631C37.0208 21.9241 36 20.312 36 18.6999C36 16.6482 37.4583 15.7689 39.2083 15.7689C42.2708 15.7689 45.2573 18.5579 47.375 22.8034C47.8535 17.8551 48.5269 15.2714 50 10.7861C51.4731 15.2714 52.1465 17.8551 52.625 22.8034C54.7427 18.5579 57.7292 15.7689 60.7917 15.7689C62.5417 15.7689 64 16.6482 64 18.6999C64 20.312 62.9792 21.9241 61.0833 21.631C59.6444 21.277 58.75 21.1913 57.2917 22.2172Z" fill="white"/>
<path d="M57.4843 30.9826C56.7401 33.2754 55.742 34.9725 52.9301 38.7386C51.2285 41.2747 50.5071 42.8498 50 44.7861C49.4929 42.8498 48.7715 41.2747 47.0699 38.7386C44.258 34.9725 43.2599 33.2754 42.5157 30.9826C42.1473 29.8772 41.9886 29.1902 41.8456 27.7696C41.7026 26.3489 41.833 23.0965 41.833 23.0965C42.7944 26.7835 44.02 28.3006 46.4096 30.9826C48.5287 33.6651 49.3627 35.1069 50 37.7517C50.6373 35.1069 51.4713 33.6651 53.5904 30.9826C55.98 28.3006 57.2056 26.7835 58.167 23.0965C58.167 23.0965 58.2974 26.3489 58.1544 27.7696C58.0114 29.1902 57.8527 29.8772 57.4843 30.9826Z" fill="white"/>
</g>
</g>
<defs>
<filter id="filter0_d_2664_1681" x="-4" y="-3.21387" width="108" height="56.2139" filterUnits="userSpaceOnUse" color-interpolation-filters="sRGB">
<feFlood flood-opacity="0" result="BackgroundImageFix"/>
<feColorMatrix in="SourceAlpha" type="matrix" values="0 0 0 0 0 0 0 0 0 0 0 0 0 0 0 0 0 0 127 0" result="hardAlpha"/>
<feOffset/>
<feGaussianBlur stdDeviation="2"/>
<feComposite in2="hardAlpha" operator="out"/>
<feColorMatrix type="matrix" values="0 0 0 0 1 0 0 0 0 1 0 0 0 0 1 0 0 0 1 0"/>
<feBlend mode="normal" in2="BackgroundImageFix" result="effect1_dropShadow_2664_1681"/>
<feBlend mode="normal" in="SourceGraphic" in2="effect1_dropShadow_2664_1681" result="shape"/>
</filter>
</defs>
</svg>
